<svg version="1.1" xmlns="http://www.w3.org/2000/svg" xmlns:xlink="http://www.w3.org/1999/xlink" x="0px" y="0px" viewBox="0 0 104.4 104.4" style="enable-background: new 0 0 104.4 104.4;" xml:space="preserve">
  <g style="opacity: 0.2;">
    <path d="M36.6,20.8L26.1,31.3v5.3l10.5,3.8v-9.1H64c1.1,0,2,0.9,2,2v12c0,1.1-0.9,2-2,2H36.6v10.5H64c1.1,0,2,0.9,2,2 v12c0,1.1-0.9,2-2,2H36.6V63.6l-10.5,5.6v4.5l10.5,10.5H66l10.5-10.5v-16l-5.2-5.3l5.2-5.2v-16L66,20.8H36.6z" style="fill: #00695C;" />
  </g>
  <circle cx="52.2" cy="52.2" r="50.2" style="opacity:0.2; fill:none; stroke: #00695C; stroke-width: 4; stroke-miterlimit: 10; enable-background: new;" />
</svg>
