<svg version="1.1" xmlns="http://www.w3.org/2000/svg" xmlns:xlink="http://www.w3.org/1999/xlink" x="0px" y="0px" viewBox="0 0 135.7 85.2" style="enable-background: new 0 0 135.7 85.2;" xml:space="preserve">
	<path d="M57.7,22.4L51.1,29v3.3l6.6,2.4V29H75c0.7,0,1.3,0.6,1.3,1.3v7.5c0,0.7-0.6,1.3-1.3,1.3H57.7v6.6H75 c0.7,0,1.3,0.6,1.3,1.3v7.5c0,0.7-0.6,1.3-1.3,1.3H57.7v-6.3L51.1,53v2.8l6.6,6.6h18.5l6.6-6.6v-10l-3.3-3.3l3.3-3.3v-10l-6.6-6.6
	H57.7V22.4z" style="fill: #00695C;" />
	<path d="M67.8,2.4l64.1,40.2L67.8,82.8l-64-40.2L67.8,2.4z" style="fill:none;stroke: #00695C;stroke-width:4;stroke-miterlimit:10;" />
	<path d="M32.5,34.8h11.1v3h-3.9v13.7h-3.4V37.8h-3.8L32.5,34.8z" style="fill: #00695C;" />
	<path d="M92.5,34.8h7.9l2.2,2.2v6.4l-2.2,2.1h-4.6v5.9h-3.4L92.5,34.8z M95.9,37.8v4.7h2.6l0.7-0.7v-3.3l-0.7-0.7H95.9z" style="fill: #00695C;" />
</svg>
