<svg xmlns="http://www.w3.org/2000/svg" xmlns:xlink="http://www.w3.org/1999/xlink" x="0px" y="0px" viewBox="0 0 300 300" style="enable-background: new 0 0 300 300;" xml:space="preserve">
	<g transform="translate(-420.000000, -7479.000000)">
		<g transform="translate(56.000000, 160.000000)">
			<path class="st0" d="M593.9,7595.5c-26.2,0-43.1-12.5-51.3-28.8l0,0l22.9-13.3
				c6,9.9,13.9,17.1,27.8,17.1c11.7,0,19.1-5.8,19.1-13.9c0-12.1-16.2-16.9-27.6-21.7c-20.3-8.7-33.8-19.5-33.8-42.5 c0-21.1,16.1-37.2,41.3-37.2c17.9,0,30.8,6.2,40.1,22.5l-21.9,14.1c-4.8-8.7-10.1-12.1-18.1-12.1c-8.3,0-13.5,5.2-13.5,12.1 c0,8.5,5.2,11.9,17.3,17.1c25.3,10.9,44.5,19.4,44.5,47.3C640.6,7581.6,620.7,7595.5,593.9,7595.5L593.9,7595.5z M529,7553 c0,29.2-18,44.6-43,44.6c-22.6,0-36.1-8.6-42.7-23.6h-0.2H443h-0.1l22.9-16c4.4,7.8,8.4,13.4,18.1,13.4c9.3,0,15.1-4.7,15.1-18.8 V7454h30V7553z M364,7619h300v-300H364V7619z" style="fill-rule: evenodd; clip-rule: evenodd;fill: #FFFFFF;" />
		</g>
	</g>
</svg>
