<svg xmlns="http://www.w3.org/2000/svg" xmlns:xlink="http://www.w3.org/1999/xlink" x="0px" y="0px" viewBox="0 0 300 300" class="site-icon" style="enable-background: new 0 0 300 300;" xml:space="preserve">
  <g>
    <defs>
      <rect id="SVGID_1_" width="300" height="300"/>
    </defs>
    <clipPath id="SVGID_00000038372698399663027570000010446327853242941090_">
      <use xlink:href="#SVGID_1_"  style="overflow:visible;"/>
    </clipPath>
    <g style="clip-path:url(#SVGID_00000038372698399663027570000010446327853242941090_);">
      <path class="st1" d="M140.2,0.1c-0.6,0.1-2.7,0.3-4.5,0.4C93,4.3,53.1,27.3,27.8,62.7C13.8,82.3,4.8,104.6,1.3,128.2 C0.1,136.4,0,138.9,0,150.1c0,11.2,0.1,13.6,1.3,21.8C9.5,228.2,49.6,275.6,104,293.1c9.7,3.1,20,5.3,31.7,6.6 c4.5,0.5,24.2,0.5,28.7,0c20.1-2.2,37.2-7.2,54-15.8c2.6-1.3,3.1-1.7,2.7-2c-0.2-0.2-11.2-14.9-24.4-32.8l-24-32.4l-30.1-44.5 c-16.5-24.5-30.1-44.5-30.3-44.5c-0.1,0-0.2,19.7-0.3,43.9c-0.1,42.3-0.1,44-0.6,45c-0.8,1.4-1.3,2-2.6,2.7 c-0.9,0.5-1.8,0.6-6.2,0.6h-5.1l-1.3-0.9c-0.9-0.6-1.5-1.3-2-2.1l-0.6-1.3l0.1-58.8l0.1-58.8l0.9-1.1c0.5-0.6,1.5-1.4,2.2-1.8 c1.2-0.6,1.7-0.6,6.7-0.6c6,0,7,0.2,8.5,1.9c0.4,0.5,16.7,25,36.2,54.5c19.5,29.5,46.1,69.9,59.2,89.6l23.8,36l1.2-0.8 c10.6-6.9,21.9-16.8,30.8-27c19-21.8,31.2-48.4,35.3-76.7c1.2-8.2,1.3-10.7,1.3-21.8c0-11.2-0.1-13.6-1.3-21.8 C290.5,71.9,250.4,24.5,196,7c-9.6-3.1-19.8-5.2-31.2-6.5C162,0.2,142.6-0.2,140.2,0.1z M201.6,90.8c1.4,0.7,2.6,2.1,3,3.5 c0.2,0.8,0.3,17.1,0.2,53.8l-0.1,52.7l-9.3-14.3l-9.3-14.3V134c0-24.8,0.1-38.7,0.3-39.4c0.5-1.6,1.5-2.9,2.9-3.7 c1.2-0.6,1.6-0.7,6.2-0.7C199.9,90.2,200.6,90.3,201.6,90.8z" style="fill: #FFFFFF;" />
    </g>
  </g>
</svg>
