<svg xmlns="http://www.w3.org/2000/svg" xmlns:xlink="http://www.w3.org/1999/xlink" x="0px" y="0px" viewBox="0 0 300 300" style="enable-background: new 0 0 300 300;" xml:space="preserve" class="site-icon">
  <path d="M63.5,0H77v13.4h12.4V0h13.5v40.5H89.4V26.9H77v13.5H63.5L63.5,0L63.5,0z M120.7,13.4h-11.9V0h37.3v13.4h-11.9 v27h-13.5L120.7,13.4L120.7,13.4z M152.1,0h14.1l8.7,14.2L183.5,0h14.1v40.5h-13.5V20.4l-9.3,14.4h-0.2l-9.3-14.4v20.1h-13.2 L152.1,0L152.1,0z M204.3,0h13.5v27.1h19v13.4h-32.5V0z M43.7,59l19.3,216.9l86.8,24.1l87-24.1L256.3,59L43.7,59L43.7,59z M215.9,110.4l-1.2,13.5l-0.5,6h-0.1H150h-0.1h-37.5l2.4,27.2h35.1h0.1h54.6h7.2l-0.6,7.1l-6.3,70.1l-0.4,4.5L150,253.9v0l-0.1,0 l-54.5-15.1l-3.7-41.8H104h14.4l1.9,21.2l29.6,8l0,0v0l29.7-8l3.1-34.5H150h-0.1H90.5l-6.5-73.3l-0.6-7.1h66.6h0.1h66.6 L215.9,110.4z" style="fill: #FFFFFF;" />
</svg>
