<svg xmlns="http://www.w3.org/2000/svg" xmlns:xlink="http://www.w3.org/1999/xlink" x="0px" y="0px" viewBox="0 0 300 300" class="site-icon" style="enable-background:new 0 0 300 300;" xml:space="preserve">
  <path d="M133.1,212.1c5.5,0.3,11.1,0.4,16.8,0.4c5.8,0,11.4-0.1,17-0.4c-5.6,7.2-11.1,13.6-16.9,19.6l0.1-0.1 c-5.8-6-11.4-12.4-16.6-19L133.1,212.1z M76.1,204.1c10.8,2.8,24,5.1,37.5,6.5l1.3,0.1c8.3,11.3,16.6,21.3,25.5,30.7l-0.1-0.1 c-13.1,14.6-30.8,24.9-50.8,28.6L89,270c0,0-0.1,0-0.1,0c-2.5,0-4.8-0.6-6.9-1.7l0.1,0c-8.3-4.8-11.9-22.9-9.1-46.3 C73.7,216.3,74.8,210.3,76.1,204.1L76.1,204.1z M224,204c1.2,4.7,2.3,10.8,3.1,16.9l0.1,0.9c2.9,23.3-0.7,41.5-8.9,46.4 c-1.8,1-4,1.6-6.4,1.6c-0.2,0-0.5,0-0.7,0h0c-20.5-3.8-38.2-14-51.3-28.4l-0.1-0.1c8.8-9.2,17.1-19.2,24.7-29.7l0.6-0.8 c14.8-1.5,28-3.9,40.9-7.2L224,204L224,204z M87.8,166.7c2.5,4.9,5.1,9.8,8,14.7c2.9,4.9,5.8,9.6,8.8,14.3 c-8.7-1.3-17.1-2.9-25.1-4.8C81.8,182.9,84.6,174.8,87.8,166.7L87.8,166.7z M212.1,166.4c3.3,8.2,6.1,16.4,8.5,24.3 c-8,2-16.5,3.6-25.2,4.9c3-4.7,6-9.5,8.8-14.5C207,176.3,209.6,171.3,212.1,166.4L212.1,166.4z M66.2,112.9 c4.4,14.8,9,27.1,14.5,39.1l-0.8-1.8c-4.7,10.1-9.3,22.3-13.1,35l-0.5,2.1c-7.1-2.2-12.7-4.3-18.3-6.7l1.2,0.4 c-21.6-9.2-35.7-21.3-35.7-30.9s14-21.8,35.7-30.9C54.5,116.8,60.2,114.8,66.2,112.9L66.2,112.9z M233.6,112.8 c6.1,1.9,11.8,4,17.2,6.2c21.6,9.3,35.7,21.3,35.7,30.9c-0.1,9.6-14.1,21.7-35.7,30.9c-5.3,2.3-11,4.3-16.9,6.2 c-4.4-14.8-9.1-27.2-14.5-39.1l0.8,1.9c4.6-10,9.3-22.3,13-35L233.6,112.8L233.6,112.8z M195.3,104.4c8.7,1.3,17.1,2.9,25.1,4.8 c-2.3,7.9-5.1,16-8.3,24.2c-2.5-4.9-5.1-9.8-8-14.7C201.3,113.8,198.3,109.1,195.3,104.4L195.3,104.4z M104.6,104.4 c-3,4.7-6,9.5-8.8,14.5c-2.8,4.9-5.4,9.8-7.9,14.7c-3.3-8.2-6.1-16.4-8.5-24.3C87.4,107.4,95.8,105.7,104.6,104.4L104.6,104.4z M150,101.2c9.3,0,18.5,0.4,27.5,1.2c5.1,7.3,10,15,14.8,23.2c4.6,8,8.9,16.1,12.7,24.3c-3.9,8.2-8.1,16.4-12.7,24.4 c-4.8,8.3-9.7,16.1-14.8,23.4c-9.1,0.8-18.3,1.2-27.6,1.2c-9.3,0-18.5-0.4-27.5-1.2c-5.1-7.3-10-15.1-14.8-23.2 c-4.6-8-8.9-16.1-12.7-24.3c3.8-8.2,8.1-16.4,12.7-24.4c4.8-8.3,9.7-16.1,14.8-23.3C131.5,101.6,140.7,101.2,150,101.2L150,101.2z M149.8,68.4c5.8,6,11.4,12.4,16.6,19l0.4,0.5c-5.5-0.3-11.1-0.4-16.8-0.4c-5.8,0-11.4,0.1-17,0.4c5.6-7.2,11.1-13.6,16.9-19.6 L149.8,68.4L149.8,68.4z M88.8,30.3c20.5,3.8,38.2,14,51.3,28.4l0.1,0.1c-8.8,9.2-17.1,19.2-24.7,29.7l-0.6,0.8 c-14.8,1.5-28,3.9-40.9,7.1l2-0.4c-1.4-6.1-2.4-12.1-3.2-17.7C70,54.9,73.5,36.8,81.7,32C83.8,31,86.2,30.4,88.8,30.3L88.8,30.3 L88.8,30.3z M210.9,30L210.9,30c0.1,0.1,0.3,0.1,0.4,0.1c2.4,0,4.6,0.6,6.6,1.6l-0.1,0c8.3,4.8,11.9,22.9,9.1,46.3 c-0.7,5.8-1.8,11.8-3.1,18c-10.9-2.8-24.1-5.1-37.6-6.6l-1.3-0.1C176.8,78,168.5,68,159.5,58.6l0.1,0.1 c13.1-14.6,30.8-24.9,50.8-28.6L210.9,30L210.9,30z M211,16.4c-24.4,3.7-45.6,15.6-61,32.7l-0.1,0.1c-15.6-17.1-36.7-28.9-60.5-32.5 l-0.6-0.1c-0.1,0-0.3,0-0.5,0c-4.9,0-9.5,1.3-13.5,3.6l0.1-0.1c-17.2,9.9-21,40.8-12.2,79.6C24.7,111.5,0,130.2,0,150 c0,19.9,24.9,38.7,63,50.4c-8.8,38.9-4.9,69.9,12.4,79.8c3.8,2.2,8.3,3.4,13.2,3.4c0.2,0,0.4,0,0.7,0h0c24.4-3.7,45.6-15.6,61-32.7 l0.1-0.1c15.6,17.1,36.7,28.9,60.5,32.5l0.6,0.1c0.2,0,0.3,0,0.5,0c4.9,0,9.5-1.3,13.4-3.5l-0.1,0.1c17.2-9.9,21-40.8,12.2-79.6 c37.9-11.7,62.7-30.5,62.7-50.3c0-19.9-24.9-38.7-63-50.4c8.8-38.9,4.9-69.8-12.4-79.8c-3.8-2.2-8.4-3.5-13.3-3.5 C211.2,16.4,211.1,16.4,211,16.4L211,16.4L211,16.4z M177.9,150c0,15.4-12.5,27.9-27.9,27.9S122,165.5,122,150s12.5-27.9,27.9-27.9 c7.7,0,14.7,3.1,19.8,8.2l0,0C174.8,135.3,177.9,142.3,177.9,150L177.9,150L177.9,150L177.9,150z" style="fill: #FFFFFF;" />
</svg>
