<svg version="1.1" xmlns="http://www.w3.org/2000/svg" xmlns:xlink="http://www.w3.org/1999/xlink" x="0px" y="0px" viewBox="0 0 300 300" class="site-icon" style="enable-background: new 0 0 300 300;" xml:space="preserve">
  <path class="st0" d="M294.3,136.6l-131-131C159.8,2.2,155,0,149.6,0S139.5,2.2,136,5.7l0,0l-27.1,27.2l34.5,34.5 c2.2-0.8,4.7-1.2,7.4-1.2c12.7,0,23,10.3,23,23c0,2.7-0.5,5.3-1.3,7.7l0.1-0.2l33.2,33.2c2.2-0.8,4.8-1.3,7.5-1.3 c12.7,0,23,10.3,23,23c0,12.7-10.3,23-23,23c-12.7,0-23-10.3-23-23c0-3.1,0.6-6.1,1.8-8.8l-0.1,0.2l-31.1-30.9v81.6 c7.6,3.9,12.8,11.6,12.8,20.6c0,12.7-10.3,23-23,23c-12.7,0-23-10.3-23-23c0-6.3,2.6-12.1,6.7-16.2l0,0c2.1-2.1,4.6-3.8,7.4-5
	l0.2-0.1v-82.4c-8.4-3.5-14.2-11.7-14.2-21.3c0-3.2,0.7-6.2,1.8-9l-0.1,0.2L95.4,46.3L5.6,136c-3.5,3.5-5.6,8.3-5.6,13.7 c0,5.3,2.2,10.2,5.6,13.7l131,131c3.5,3.5,8.3,5.7,13.7,5.7c5.3,0,10.2-2.2,13.7-5.7L294.3,164c3.5-3.5,5.7-8.3,5.7-13.7
	C300,145,297.8,140.1,294.3,136.6L294.3,136.6L294.3,136.6z" style="fill: #FFFFFF;" />
</svg>
