<svg xmlns="http://www.w3.org/2000/svg" xmlns:xlink="http://www.w3.org/1999/xlink" x="0px" y="0px" viewBox="0 0 300 300" class="site-icon" style="enable-background: new 0 0 300 300;" xml:space="preserve">
  <path class="st0" d="M258.2,166.8c0.4,0,0.8,0,1.2,0c7.8,0,15.2,1.8,21.8,5.1l-0.3-0.1c6,2.9,10.9,7.2,14.4,12.5l0.1,0.1 c2.8,4.1,4.5,9.1,4.5,14.6c0,0.4,0,0.8,0,1.2v-0.1c-0.3,5.4-2.8,10.2-6.5,13.6l0,0c-2.1,2-4.6,3.6-7.4,4.6l-0.1,0 c-1.6,0.3-2.4,0.1-2.6-0.7s0.5-1.6,2.1-2.6c4.2-2.6,7.3-6.7,8.4-11.6l0-0.1c0-0.4,0-0.9,0-1.3c0-2.9-0.7-5.7-1.9-8.1l0,0.1 c-2-4.2-5.1-7.7-8.8-10.3l-0.1-0.1c-5.6-3.6-12.3-6-19.5-6.6l-0.2,0c-2.5-0.4-5.3-0.6-8.2-0.6c-7.5,0-14.7,1.4-21.3,4l0.4-0.1 c1.4,3.2,2.2,6.9,2.3,10.7v0c-0.2,7.9-4.4,14.8-10.7,18.7l-0.1,0.1c-2.9,2.1-6.2,3.9-9.8,5.3l-0.3,0.1c-2.1,1.1-4.7,1.7-7.3,1.7 c-0.3,0-0.6,0-0.9,0h0c-5.9-1.2-7.3-6.4-4.2-15.5c1.4-3.9,3.3-7.4,5.7-10.4l-0.1,0.1c3.1-4,6.5-7.6,10.2-10.7l0.1-0.1l-0.9-1.4 c-1.7-2.9-3.3-6.3-4.6-9.9l-0.1-0.4c-0.9-3.1-1.7-6.1-2.3-8.9l-0.5-3.3l-4.7,8.9c-4.1,7.5-8,14.1-11.7,19.7l-1.4,2.3 c1.6,3.8,2.7,8.3,3.3,12.9l0,0.2c0,0.4,0.1,1,0.1,1.5c0,7.1-3.5,13.4-8.9,17.2l-0.1,0c-2.6,1.6-5.6,3.2-8.8,4.7l-0.6,0.2 c-3.3,1.4-7.1,2.4-11.2,2.6h-0.1c-0.3,0-0.7,0-1,0c-2.3,0-4.6-0.5-6.6-1.5l0.1,0c-1.2-1-1.9-2.5-1.9-4.2c0-0.9,0.2-1.7,0.5-2.4l0,0 c3.8-5.3,7.4-9.8,11.4-14.2l-0.1,0.1l10.3-13.1l-1.9-4.2c-1.5-2.8-2.9-6-4.1-9.4l-0.1-0.5c-0.9-3.1-1.7-6.1-2.3-8.9l-0.5-3.3 l-4.7,11.3c-3.7,8.7-7.2,16.2-10.3,22.5c-4.7,9.4-8.6,16.6-11.7,21.6l-0.9,1.4c-3.7,5.9-7.3,8.9-10.8,8.9c-3.4,0-5.8-2.2-7-6.6 c-0.9-3.2-1.4-6.9-1.4-10.8c0-0.3,0-0.7,0-1v0l0.9-6.6v0.5c-2.5,5.9-5,11.4-7.5,16.4c-1.7,3.2-3.4,6-5.3,8.6l0.1-0.2 c-1.9,2-4.7,3.3-7.7,3.3c0,0,0,0-0.1,0c-0.2,0-0.4,0-0.6,0c-2.4,0-4.5-0.9-6.2-2.4l0,0c-3.3-3.4-5.7-7.5-7-12.2l0-0.2 c-1.5-4.3-2.4-9.2-2.4-14.3c0-0.7,0-1.3,0-2v0.1c0.7-7.5,2.2-14.3,4.4-20.8l-0.2,0.7l-16.9,9.8v0.5c2.4,5.1,3.9,11,3.9,17.3 c0,1.2,0,2.3-0.1,3.4l0-0.2c-0.5,9.7-3.6,18.5-8.6,26l0.1-0.2c-5.2,8.3-12.8,14.7-21.7,18.4l-0.3,0.1c-5,2.3-10.9,3.6-17.1,3.6 c-3.9,0-7.7-0.5-11.3-1.5l0.3,0.1c-3-1-5.4-3-7-5.6l0-0.1c-2.2-3.2-3.6-7-3.8-11.2v-0.1c-0.1-0.9-0.2-2-0.2-3.2 c0-4.8,1.1-9.4,3.1-13.4l-0.1,0.2c5.4-9.2,12.8-16.6,21.7-21.8l0.3-0.2c6.3-4.4,13.5-8.6,21.1-12.3l1-0.4l2.3-1.4 c-2.8-2.2-8-5.9-15.5-11.3c-10-6.7-18.7-13.5-26.9-20.8l0.2,0.2c-7.9-6.8-13.7-16-16.3-26.4l-0.1-0.4C0.2,131.6,0,130,0,128.3 c0-5.3,1.4-10.3,3.7-14.6l-0.1,0.2C9,102.6,16.2,93,25.2,85.4l0.1-0.1c9.7-9.1,20.6-17.1,32.5-23.5l0.8-0.4 c10.6-6.1,23-11.8,35.9-16.4l1.6-0.5c12-4.4,25.8-7,40.3-7h0c0.7,0,1.4,0,2.2,0c11.6,0,22.6,2.7,32.4,7.5l-0.4-0.2 c8.4,3.8,14.8,11.1,17.3,19.9l0.1,0.2c0.8,3,1.2,6.5,1.2,10.1c0,5.9-1.2,11.6-3.4,16.7l0.1-0.3c-4,9.7-9.7,18-16.9,24.8l0,0 c-7.2,7.2-15.9,12.9-25.5,16.7l-0.5,0.2c-10.1,4.3-21.8,7-34,7.5l-0.2,0c-1.8,0.2-3.9,0.3-6,0.3c-5.6,0-10.9-0.8-16-2.3l0.4,0.1 c-4.5-1.4-8.4-3.7-11.8-6.6l0,0c-2.3-1.9-4.2-4.2-5.6-6.9l-0.1-0.1c-0.9-2.5-1-4-0.2-4.5s1.3-0.5,1.6-0.2l2.3,2.3 c2.6,2.4,5.7,4.3,9.2,5.6l0.2,0.1c4.7,1.7,10.2,2.6,15.9,2.6c1.8,0,3.6-0.1,5.4-0.3l-0.2,0c15.2-1.8,28.9-7,40.7-14.7l-0.3,0.2 c10-5.9,18.1-14.1,23.7-23.8l0.2-0.3c2.8-4.1,4.5-9.3,4.5-14.8c0-3.4-0.6-6.6-1.8-9.6l0.1,0.2c-3.5-5.5-9.2-9.4-15.8-10.5l-0.1,0 c-5.1-1.3-11-2-17.1-2c-4.9,0-9.7,0.5-14.3,1.4l0.5-0.1c-15.8,2.9-30,7.7-43,14.4l0.9-0.4c-38.4,19.4-58.3,39.2-59.5,59.5v0.5 c0,8.2,3.2,15.6,8.5,21.1l0,0c6,6.6,12.6,12.5,19.8,17.6l0.4,0.2c6.6,4.9,12.4,10,17.8,15.5l0,0l0.9,0.9l30-16.4 c3.4-5,7.5-9.1,12.3-12.5l0.2-0.1c3.8-3.2,8.5-5.2,13.7-5.6l0.1,0c0.2,0,0.4,0,0.6,0c3.5,0,6.5,2.1,7.8,5.1l0,0.1 c1,2.2,1.6,4.8,1.6,7.5c0,0.8-0.1,1.6-0.2,2.4l0-0.1L135,171l1.4-0.9c1-0.7,2.2-1.2,3.5-1.2c0.8,0,1.6,0.2,2.4,0.5l0,0 c1.8,0.5,3.1,2.1,3.1,4c0,0.3,0,0.6-0.1,1l0,0l-1.4,5.2c-2.8,11.2-4.7,19.4-5.6,24.4c-0.5,1.6-0.7,3.5-0.7,5.4c0,0.4,0,0.8,0,1.2 v-0.1c0.2,1.9,0.4,2.8,0.7,2.8s0.9-0.9,1.9-2.8l1.4-3.3c0.3,0,0.3,0.2,0,0.5l5.2-10.8c12.2-26.9,18.8-41.9,19.7-45l2.8-8.9 c0.3-0.6,1.6-1.2,3.8-1.9c2.2-0.6,4.8-0.9,7.4-0.9c0.2,0,0.4,0,0.6,0h0c4.4,0,6.6,1.1,6.6,3.3l-0.5,2.3c-1.1,2.9-2.1,6.5-2.9,10.2 l-0.1,0.6c-0.2,1.2-0.3,2.6-0.3,4c0,1.9,0.2,3.7,0.6,5.5l0-0.2l0.5,1.9c1,3.9,2.4,7.3,4.3,10.5l-0.1-0.2c3.7-6.2,7.3-12.6,10.8-19.2 c2.7-4.5,5.3-9.8,7.3-15.3l0.2-0.7c0.7-3.5,1.5-6.5,2.5-9.4l-0.2,0.5c0.3-0.9,1.6-1.6,4-2.1c2.2-0.5,4.8-0.7,7.4-0.7h0.3h0 c4.4,0,6.7,1.1,7,3.3l-0.9,1.9c-1.1,3.2-2.1,6.9-2.7,10.8l-0.1,0.4c-0.1,0.9-0.1,2-0.1,3c0,2.2,0.2,4.4,0.6,6.6l0-0.2v1.9 c1.1,4.1,2.7,7.7,4.8,10.9l-0.1-0.2l1.4,3.3c7.8-3.8,17-6.1,26.8-6.1L258.2,166.8L258.2,166.8L258.2,166.8z M57.2,234.9 c6.5-6.7,10.5-15.9,10.5-26c0-3.9-0.6-7.7-1.7-11.2l0.1,0.3l-7.5,4.7c-7.7,4.4-14.3,9.2-20.3,14.8l0.1-0.1 c-4.5,4.2-7.9,9.6-9.6,15.7l-0.1,0.2c-1.4,5.8-0.7,9.5,2.1,11.3c1.7,0.8,3.7,1.2,5.8,1.2c2.3,0,4.5-0.5,6.4-1.5l-0.1,0 C48.6,242.2,53.4,238.9,57.2,234.9L57.2,234.9L57.2,234.9z M120,191.7c1.6-4.1,3.3-8.9,5.2-14.5c2.5-7.5,3.4-11.9,2.6-13.1 c-0.8-1.2-2.3-1.4-4.5-0.5c-2.6,1.3-4.8,3-6.5,5.1l0,0c-2,2.5-3.8,5.2-5.5,8.1l-0.2,0.3c-1.9,3.1-3.5,6.7-4.6,10.5l-0.1,0.3 c-1.8,4.9-2.9,10.6-2.9,16.5c0,0.8,0,1.6,0.1,2.4v-0.1c0.3,6.2,1.3,9.6,3,10.1s3.6-1.8,5.9-6.8c2.1-3.9,4.1-8.4,5.5-13.1l0.1-0.5 C119,194.2,119.6,192.6,120,191.7L120,191.7z M172,216.5c6.5-2.9,11.1-9.1,11.7-16.3l0-0.1v-0.5l-5.2,6.6l-9.4,10.3 c-0.1,0.1-0.2,0.3-0.2,0.5s0.1,0.4,0.2,0.5C169.5,217.8,170.4,217.5,172,216.5L172,216.5z M212.3,207.6c7.1-2,12.2-8.4,12.2-16.1 c0-0.1,0-0.2,0-0.4v0c-0.1-1.9-0.4-3.6-1-5.3l0,0.1c-3.6,3.2-6.6,7.1-8.8,11.5l-0.1,0.2C211.8,203.4,211,206.7,212.3,207.6 L212.3,207.6z" style="fill: #FFFFFF;" />
</svg>
