<svg version="1.1" xmlns="http://www.w3.org/2000/svg" xmlns:xlink="http://www.w3.org/1999/xlink" x="0px" y="0px" viewBox="0 0 300 300" class="site-icon" style="enable-background:new 0 0 300 300;" xml:space="preserve">
<g>
	<g transform="translate(-180.000000, -7602.000000)">
		<g transform="translate(56.000000, 160.000000)">
			<path class="st0" d="M248.6,7683.1c-3.1-2.9-14.7-14-20.1-19.3c-1.2-1.2-2.3-1.8-4-1.7 c-49.4,1.2-67.8-41.5-56.1-72.3c9-23.6,33.8-38,58.2-33.6c20.5,3.7,25.7,11.9,57.8,44.9c8.9,9.1,23.6-4.5,14.2-14.1 c-10.2-10.5-20.2-21.3-30.8-31.3c-20.6-19.5-44.9-25.4-71.8-17c-36.2,11.2-57.3,49.1-49.1,86.5c7.5,34.1,36.9,58,71.2,58.1 C220.6,7683.2,246,7683.2,248.6,7683.1 M256,7521.9c0.2,0.2,0.2,0.4,0.3,0.4c6.2,3.1,12.1,6.7,17.7,10.8c0.3,0.3,1.2,0.2,1.7-0.1 c30.6-19.7,70-12.9,92.2,16.1c23.3,30.3,16.2,68.5-3.1,90.1c-29.3,32.9-74.8,29.5-100.2,3.4c-13.7-14.1-27.6-28.1-41.4-42.2 c-10.8-11-24.8,4.4-15,14.2c49,48.9,57.2,63.4,92,68.1c30.7,4.1,61.1-6.8,82.1-32.5c28.8-35.3,26.4-86-1.4-117.7 C344.7,7491.3,289.6,7493.2,256,7521.9 M424,7586.9c0,60.3-36.2,109.8-105.5,117.6c-7.6,0-99.7,0.1-107.2-0.3 c-92.7-5.9-122.7-136.7-34.9-181.3c16-8.1,34.8-11.6,55.5-8.8c0.6,0.1,1.4-0.2,1.8-0.6C295.2,7449.6,412.5,7476.7,424,7586.9" style="fill-rule: evenodd; clip-rule: evenodd; fill: #FFFFFF;" />
		</g>
	</g>
</g>
</svg>
