<svg xmlns="http://www.w3.org/2000/svg" xmlns:xlink="http://www.w3.org/1999/xlink" x="0px" y="0px" viewBox="0 0 300 300" class="site-icon" style="enable-background: new 0 0 300 300;" xml:space="preserve">
  <path class="st0" d="M283,86.5v126.9c0,8.2-4.4,15.9-11.5,20l-109.9,63.5c-3.5,2-7.5,3.1-11.6,3.1c-4,0-8-1-11.5-3.1l-36.7-21.7 c-5.5-3.1-2.8-4.1-1-4.8c7.3-2.5,8.8-3.1,16.6-7.6c0.8-0.5,1.9-0.3,2.7,0.2l28.2,16.7c1,0.6,2.5,0.6,3.4,0l109.9-63.4 c1-0.6,1.7-1.8,1.7-3V86.5c0-1.2-0.7-2.4-1.7-3L151.7,20.1c-1-0.6-2.4-0.6-3.4,0L38.5,83.5c-1.1,0.6-1.7,1.8-1.7,3v126.9 c0,1.2,0.7,2.4,1.7,2.9l30.1,17.4c16.3,8.2,26.3-1.5,26.3-11.1V97.4c0-1.8,1.4-3.2,3.2-3.2H112c1.7,0,3.2,1.4,3.2,3.2v125.2 c0,21.8-11.9,34.3-32.5,34.3c-6.3,0-11.4,0-25.3-6.9l-28.8-16.6c-7.1-4.1-11.5-11.8-11.5-20V86.5c0-8.2,4.4-15.9,11.5-20L138.4,3 c7-3.9,16.2-3.9,23.1,0l109.9,63.5C278.6,70.6,283,78.3,283,86.5z M188.3,201.3c-32.8,0-40-8.2-42.4-24.6c-0.3-1.7-1.8-3-3.6-3h-16 c-2,0-3.6,1.6-3.6,3.6c0,20.9,11.4,45.8,65.6,45.8c39.3,0,61.8-15.5,61.8-42.5c0-26.8-18.1-33.9-56.2-38.9 c-38.5-5.1-42.4-7.7-42.4-16.7c0-7.4,3.3-17.4,31.8-17.4c25.5,0,34.8,5.5,38.7,22.6c0.3,1.6,1.8,2.8,3.5,2.8h16.1 c1,0,1.9-0.4,2.6-1.1c0.7-0.8,1-1.7,0.9-2.8c-2.5-29.6-22.1-43.3-61.8-43.3c-35.3,0-56.4,14.9-56.4,39.9c0,27.1,21,34.6,54.9,38 c40.6,4,43.7,9.9,43.7,17.9C225.5,195.4,214.4,201.3,188.3,201.3z" style="fill: #FFFFFF;" />
</svg>
